# xmcd CD database file
#
# Track frame offsets:
#	180
#	16527
#	33699
#	56833
#	74202
#	90139
#	110235
#	124807
#	146101
#	158911
#	173082
#	191670
#	216493
#
# Disc length: 3080 seconds
#
# Revision: 1
# Processed by: cddbd v1.5.2PL0 Copyright (c) Steve Scherf et al.
# Submitted via: CDex 1.70beta2
#
DISCID=c40c060d
DTITLE=Bodo Kolbe - Mer speele de Bluus CD1
DYEAR=1997
DGENRE=Blues
TTITLE0=Mer speele de Bluus
TTITLE1=Vorm-Door-Steher R‰g
TTITLE2=Isch hab gedraamt die anner Nacht
TTITLE3=Isch muﬂ emol unner doi Haub gucke
TTITLE4=Haam zu dir
TTITLE5=Biibaa Bluus
TTITLE6=De Merfeller Dood
TTITLE7=Nordweststadt Bluus
TTITLE8=Isch les jeden Moje die Zeidung
TTITLE9=Ohne Erwet
TTITLE10=Es kimmt net uff die Greeﬂ oo
TTITLE11=B 44
TTITLE12=De Merfeller Dood (Urfassung)
EXTD=YEAR: 1997
EXTT0=
EXTT1=
EXTT2=
EXTT3=
EXTT4=
EXTT5=
EXTT6=
EXTT7=
EXTT8=
EXTT9=
EXTT10=
EXTT11=
EXTT12=
PLAYORDER=
